Coordinates
version=1
nRows=17
nColumns=24
inDegrees=yes

Units are S.I. units (second, meters, Newtons, ...)
Angles are in degrees.

endheader
time	pelvis_tilt	pelvis_list	pelvis_rotation	pelvis_tx	pelvis_ty	pelvis_tz	hip_flexion_r	hip_adduction_r	hip_rotation_r	knee_angle_r	ankle_angle_r	subtalar_angle_r	mtp_angle_r	hip_flexion_l	hip_adduction_l	hip_rotation_l	knee_angle_l	ankle_angle_l	subtalar_angle_l	mtp_angle_l	lumbar_extension	lumbar_bending	lumbar_rotation
      0.36700000	     -2.59032419	      2.26250088	      2.04516663	     -0.79955957	      1.03835896	      0.25880589	     29.25309065	     -2.66566861	     -3.46848262	     -4.41618372	      7.68159695	     -3.18111042	     11.00611758	    -17.18628473	      3.35100667	      3.17640756	     -3.59831847	     17.31086623	      6.90171265	      4.73845242	    -11.06830566	     -1.99083089	     -4.28524051
      0.37116667	     -2.59257163	      2.25304034	      2.17660431	     -0.79328676	      1.03744539	      0.25885957	     29.19274453	     -2.66267968	     -3.34297440	     -4.75179542	      7.65849374	     -3.26715373	     11.00491252	    -17.33486290	      3.27624371	      3.29689933	     -4.03718238	     17.34962238	      6.93237550	      4.75126088	    -11.03340872	     -1.85504215	     -4.26245007
      0.37533333	     -2.59846574	      2.22310061	      2.30679584	     -0.78693581	      1.03657202	      0.25895762	     29.07989102	     -2.62565969	     -3.05997421	     -5.00715095	      7.42667787	     -3.72218015	     10.99726153	    -17.43082613	      3.16788664	      3.19484533	     -4.58312761	     17.50069953	      7.35087351	      4.86435226	    -10.94426494	     -1.68985820	     -4.29995916
      0.37950000	     -2.59950983	      2.18874949	      2.43403741	     -0.78055246	      1.03574275	      0.25904533	     28.98566656	     -2.58887111	     -2.88220843	     -5.35085591	      7.24320647	     -3.98981452	     10.99999193	    -17.53143888	      3.05614963	      3.14483971	     -5.12943464	     17.58714969	      7.66654839	      5.01259836	    -10.87943003	     -1.52322812	     -4.27066889
      0.38366667	     -2.58801109	      2.14608527	      2.55678665	     -0.77413574	      1.03497925	      0.25914501	     28.87578308	     -2.54067926	     -2.71699517	     -5.72046246	      7.01437375	     -4.26920466	     11.01076693	    -17.64446304	      2.93486952	      3.12034605	     -5.67530980	     17.63041713	      7.93475175	      5.19295794	    -10.82723267	     -1.33721640	     -4.25798651
      0.38783333	     -2.59346967	      2.10105392	      2.67250866	     -0.76768423	      1.03423328	      0.25928310	     28.78764215	     -2.48523872	     -2.55440101	     -6.12021641	      6.73778903	     -4.57475102	     11.03220484	    -17.71854597	      2.80949373	      3.06612234	     -6.26457751	     17.65767131	      8.23518698	      5.43331852	    -10.74638125	     -1.15606236	     -4.23859762
      0.39200000	     -2.59068379	      2.03887627	      2.79340116	     -0.76119157	      1.03356795	      0.25940363	     28.68341708	     -2.41625294	     -2.42930690	     -6.52955072	      6.40621567	     -4.87542040	     11.05868386	    -17.78680812	      2.66397913	      3.02229166	     -6.88272847	     17.64515569	      8.50479234	      5.69198431	    -10.67288360	     -0.94517824	     -4.21554802
      0.39616667	     -2.58901515	      1.97522987	      2.90296216	     -0.75467908	      1.03294884	      0.25956261	     28.58718771	     -2.34043431	     -2.30986709	     -6.96727504	      6.01894025	     -5.19392003	     11.09400981	    -17.84049899	      2.51552281	      2.94935086	     -7.52395740	     17.61670460	      8.81909789	      6.01192221	    -10.59909128	     -0.73373635	     -4.18091444
      0.40033333	     -2.58782713	      1.89803288	      3.01170795	     -0.74813170	      1.03238925	      0.25972667	     28.49332846	     -2.25186707	     -2.21982673	     -7.42377548	      5.58743560	     -5.50902067	     11.13634081	    -17.87358035	      2.35154910	      2.86586245	     -8.20339062	     17.55545062	      9.12811882	      6.38442211	    -10.51925995	     -0.50495035	     -4.14128866
      0.40450000	     -2.59290976	      1.81107457	      3.11534595	     -0.74155484	      1.03188313	      0.25990310	     28.41186227	     -2.15385947	     -2.15513480	     -7.90267005	      5.11903272	     -5.81626306	     11.18199875	    -17.88233723	      2.17719590	      2.76971684	     -8.91640278	     17.46166884	      9.44318619	      6.80157458	    -10.42822452	     -0.26203880	     -4.09577028
      0.40866667	     -2.59219493	      1.73437156	      3.21533721	     -0.73498556	      1.03144513	      0.26009070	     28.35212780	     -2.07195234	     -2.17300073	     -8.44502047	      4.65479351	     -5.99080328	     11.56972012	    -17.88347909	      2.01362967	      2.69801615	     -9.64116525	     17.24677006	      9.68686332	     10.08872932	    -10.34868874	     -0.04343639	     -4.04184277
      0.41283333	     -2.56824501	      1.62586498	      3.30199905	     -0.72837977	      1.03111812	      0.26031185	     28.25108654	     -1.94717705	     -2.13080062	     -8.96059334	      4.12496857	     -6.31783978	     11.55699573	    -17.89319454	      1.81857169	      2.60988432	    -10.40273831	     17.05968663	      9.92319426	     10.16413371	    -10.29414392	      0.23127983	     -3.97714497
      0.41700000	     -2.57676063	      1.51647723	      3.38374638	     -0.72175492	      1.03079653	      0.26054836	     28.20711923	     -1.82624977	     -2.13324679	     -9.52922044	      3.60495162	     -6.57181047	     11.54611685	    -17.83456427	      1.62187815	      2.48109482	    -11.22982218	     16.84946251	     10.23219739	     10.30505365	    -10.19547621	      0.50027816	     -3.90644484
      0.42116667	     -2.56481353	      1.40350527	      3.44724630	     -0.71514444	      1.03056710	      0.26084418	     28.15899206	     -1.69464989	     -2.14502407	    -10.13472293	      3.08314462	     -6.81855956	     11.53254882	    -17.77208324	      1.41856889	      2.29952292	    -12.09573348	     16.60843032	     10.60087239	     10.54137933	    -10.13064310	      0.77300245	     -3.82468016
      0.42533333	     -2.55356673	      1.29060847	      3.50572491	     -0.70852737	      1.03040288	      0.26116222	     28.12212525	     -1.56480976	     -2.17260615	    -10.76721137	      2.58349662	     -7.01913780	     11.51434304	    -17.68046680	      1.21332840	      2.10402212	    -13.01202261	     16.28797812	     10.96666818	     10.94788398	    -10.06361710	      1.02976504	     -3.73559432
      0.42950000	     -2.55315713	      1.15135761	      3.55320435	     -0.70187418	      1.03027338	      0.26148619	     28.11511088	     -1.41017982	     -2.23365323	    -11.44878066	      2.13910534	     -7.19049828	     11.48848764	    -17.55638884	      0.98584676	      1.91683124	    -13.96830855	     15.97211441	     11.26719201	     11.37620462	     -9.97217465	      1.34423999	     -3.63172191
      0.43366667	     -2.52671029	      1.03289019	      3.59176543	     -0.69525480	      1.03026544	      0.26187163	     28.08630040	     -1.27226758	     -2.28369763	    -12.14375008	      1.71650474	     -7.31142298	     11.43608654	    -17.42823692	      0.76859850	      1.66743972	    -14.96503175	     15.52378561	     11.67266517	     12.17429297	     -9.93451266	      1.59769213	     -3.52893167
